<?xml version="1.0" encoding="UTF-8" standalone="no"?>
<!-- Created with Inkscape (http://www.inkscape.org/) -->

<svg
   xmlns:dc="http://purl.org/dc/elements/1.1/"
   xmlns:cc="http://creativecommons.org/ns#"
   xmlns:rdf="http://www.w3.org/1999/02/22-rdf-syntax-ns#"
   xmlns:svg="http://www.w3.org/2000/svg"
   xmlns="http://www.w3.org/2000/svg"
   xmlns:sodipodi="http://sodipodi.sourceforge.net/DTD/sodipodi-0.dtd"
   xmlns:inkscape="http://www.inkscape.org/namespaces/inkscape"
   width="50.563999mm"
   height="19mm"
   viewBox="0 0 50.563999 19"
   version="1.1"
   id="svg8"
   inkscape:version="0.92.4 (5da689c313, 2019-01-14)"
   sodipodi:docname="titco-logo.svg">
  <defs
     id="defs2" />
  <sodipodi:namedview
     id="base"
     pagecolor="#ffffff"
     bordercolor="#666666"
     borderopacity="1.0"
     inkscape:pageopacity="0.0"
     inkscape:pageshadow="2"
     inkscape:zoom="1"
     inkscape:cx="277.21429"
     inkscape:cy="-210.00085"
     inkscape:document-units="mm"
     inkscape:current-layer="layer1"
     showgrid="false"
     inkscape:window-width="1920"
     inkscape:window-height="1016"
     inkscape:window-x="0"
     inkscape:window-y="27"
     inkscape:window-maximized="1" />
  <metadata
     id="metadata5">
    <rdf:RDF>
      <cc:Work
         rdf:about="">
        <dc:format>image/svg+xml</dc:format>
        <dc:type
           rdf:resource="http://purl.org/dc/dcmitype/StillImage" />
        <dc:title></dc:title>
      </cc:Work>
    </rdf:RDF>
  </metadata>
  <g
     inkscape:label="Layer 1"
     inkscape:groupmode="layer"
     id="layer1"
     transform="translate(0,-278)">
    <g
       aria-label="titco"
       clip-path="none"
       style="font-style:normal;font-variant:normal;font-weight:normal;font-stretch:normal;font-size:25.39999962px;line-height:1.25;font-family:'Roboto Condensed';-inkscape-font-specification:'Roboto Condensed, ';letter-spacing:0px;word-spacing:0px;fill:#000000;fill-opacity:1;stroke:none;stroke-width:0.26458332"
       id="text12"
       transform="translate(-5.6804512,272.53757)">
      <path
         d="m 13.65498,24.127766 q -1.004589,0.334863 -2.158007,0.334863 -1.7611331,0 -2.80293,-0.917773 Q 7.6522462,22.627082 7.6522462,20.493879 V 13.412141 H 5.6802735 V 10.795247 H 7.6522462 V 7.483821 h 3.5842768 v 3.311426 h 2.282032 v 2.616894 h -2.282032 v 6.709668 q 0,0.843359 0.347266,1.116211 0.347266,0.272852 1.029395,0.272852 0.545703,0 1.041796,-0.09922 z"
         style="font-style:normal;font-variant:normal;font-weight:bold;font-stretch:normal;font-family:Roboto;-inkscape-font-specification:Roboto;stroke-width:0.26458332"
         id="path33"
         inkscape:connector-curvature="0" />
      <path
         d="m 15.490527,7.3225905 q 0,-0.8061523 0.545703,-1.3270508 0.545703,-0.5333007 1.463477,-0.5333007 0.917773,0 1.463476,0.5333007 0.545703,0.5208985 0.545703,1.3270508 0,0.79375 -0.545703,1.3270508 -0.545703,0.5208984 -1.463476,0.5208984 -0.917774,0 -1.463477,-0.5208984 -0.545703,-0.5333008 -0.545703,-1.3270508 z m 3.819922,3.4726565 v 13.419335 h -3.59668 V 10.795247 Z"
         style="font-style:normal;font-variant:normal;font-weight:bold;font-stretch:normal;font-family:Roboto;-inkscape-font-specification:Roboto;stroke-width:0.26458332"
         id="path35"
         inkscape:connector-curvature="0" />
      <path
         d="m 28.984277,24.127766 q -1.00459,0.334863 -2.158008,0.334863 -1.761133,0 -2.80293,-0.917773 -1.041797,-0.917774 -1.041797,-3.050977 V 13.412141 H 21.00957 v -2.616894 h 1.971972 V 7.483821 h 3.584278 v 3.311426 h 2.282031 v 2.616894 H 26.56582 v 6.709668 q 0,0.843359 0.347265,1.116211 0.347266,0.272852 1.029395,0.272852 0.545703,0 1.041797,-0.09922 z"
         style="font-style:normal;font-variant:normal;font-weight:bold;font-stretch:normal;font-family:Roboto;-inkscape-font-specification:Roboto;stroke-width:0.26458332"
         id="path37"
         inkscape:connector-curvature="0" />
      <path
         d="m 36.425681,21.572883 q 0.979785,0 1.612305,-0.533301 0.632519,-0.545703 0.644922,-1.463476 h 3.373437 q -0.0248,2.133203 -1.637109,3.509863 -1.599902,1.37666 -3.931543,1.37666 -3.112988,0 -4.663281,-1.95957 -1.537891,-1.971973 -1.537891,-4.824512 v -0.347265 q 0,-2.840137 1.537891,-4.81211 1.53789,-1.971972 4.650879,-1.971972 2.468066,0 4.005957,1.413867 1.550293,1.413867 1.575097,3.832324 h -3.373437 q -0.0124,-0.979785 -0.595313,-1.661914 -0.58291,-0.694531 -1.674316,-0.694531 -1.562695,0 -2.046387,1.178223 -0.483691,1.16582 -0.483691,3.063378 0,1.550293 0.471289,2.728516 0.483691,1.16582 2.071191,1.16582 z"
         style="font-style:normal;font-variant:normal;font-weight:bold;font-stretch:normal;font-family:Roboto;-inkscape-font-specification:Roboto;stroke-width:0.26458332"
         id="path39"
         inkscape:connector-curvature="0" />
      <path
         d="m 43.532226,17.380891 q 0,-2.926953 1.661914,-4.874121 1.661914,-1.95957 4.688086,-1.95957 3.063379,0 4.71289,1.95957 1.649512,1.947168 1.649512,4.874121 v 0.260449 q 0,2.926953 -1.649512,4.874121 -1.649511,1.947168 -4.688086,1.947168 -3.013769,0 -4.675683,-1.897558 -1.649512,-1.897559 -1.699121,-4.7625 z m 3.59668,0.260449 q 0,1.63711 0.620117,2.790528 0.632519,1.141015 2.158007,1.141015 1.500684,0 2.120801,-1.141015 0.63252,-1.141016 0.63252,-3.050977 0,-1.599902 -0.63252,-2.765722 -0.620117,-1.178223 -2.145605,-1.178223 -1.513086,0 -2.133203,1.16582 -0.620117,1.16582 -0.620117,3.038574 z"
         style="font-style:normal;font-variant:normal;font-weight:bold;font-stretch:normal;font-family:Roboto;-inkscape-font-specification:Roboto;stroke-width:0.26458332"
         id="path41"
         inkscape:connector-curvature="0" />
    </g>
  </g>
</svg>
